<svg width="550" height="184" viewBox="0 0 550 184" fill="none" xmlns="http://www.w3.org/2000/svg">
<path d="M549.356 142.946H520.06V180.722H479.457V142.946H382.575V114.935L467.379 0.835938H511.066L432.429 109.025H480.742V75.3603H520.06V109.025H549.356V142.946Z" fill="#D3E3EF"/>
<path opacity="0.35" d="M279.746 71.7269C293.444 74.7046 300.292 89.8904 293.741 102.396C289.275 110.436 279.746 114.902 270.814 112.818C257.117 109.84 250.268 94.6546 256.819 82.1486C261.285 74.109 270.814 69.9404 279.746 71.7269Z" fill="#97A0B2"/>
<path opacity="0.35" d="M221.391 35.2988L224.874 38.7812C196.648 67.0066 196.648 112.827 224.874 141.052C253.099 169.278 298.919 169.278 327.145 141.052L330.627 144.535C300.569 174.593 251.45 174.593 221.391 144.535C191.333 114.477 191.333 65.357 221.391 35.2988Z" fill="#97A0B2" stroke="#97A0B2" stroke-width="11.6809"/>
<path d="M219.928 36.7649L223.41 40.2473C251.636 12.0219 297.456 12.022 325.681 40.2474C353.907 68.4727 353.907 114.293 325.681 142.518L329.164 146.001C359.222 115.943 359.222 66.8232 329.164 36.765C299.105 6.70682 249.986 6.70671 219.928 36.7649Z" fill="#6CA3CB"/>
<path d="M275.28 176.9V155.638C312.588 155.638 342.274 123.144 338.262 85.0341C335.053 56.1506 311.786 32.4821 282.501 29.2728C244.391 24.86 211.897 54.9471 211.897 92.2549H190.636C190.636 42.5111 233.961 2.39516 284.908 8.41255C323.821 12.8253 354.71 44.1158 359.123 82.6271C365.14 133.574 325.024 176.9 275.28 176.9Z" fill="#D3E3EF" stroke="#D3E4F0" stroke-width="14.0171"/>
<path d="M167.747 142.946H138.451V180.722H97.8485V142.946H0.966797V114.935L85.7704 0.835938H129.457L50.8211 109.025H99.1334V75.3603H138.451V109.025H167.747V142.946Z" fill="#D3E3EF"/>
</svg>
