<svg width="20" height="31" viewBox="0 0 20 31" fill="none" xmlns="http://www.w3.org/2000/svg">
<path d="M19.6529 15.5281C19.6529 11.0085 16.5983 8.60848 12.5774 7.86041L12.1099 7.76691C10.3021 7.42404 7.2994 7.23703 7.2994 5.67855C7.2994 3.81867 15.2614 5.08366 18.1567 6.09365V0.932521C14.5035 0.463908 13.3255 0.203125 11.0189 0.203125C5.47079 0.203125 0.0888672 1.90705 0.0888672 6.98767C0.0888672 8.54614 1.59539 9.63707 2.40579 10.4786C1.56422 11.6943 0.0888672 13.2216 0.0888672 15.0917C0.0888672 19.8918 3.08113 21.2633 7.13316 22.136L7.63187 22.2919C9.87607 22.7594 12.4735 23.0399 12.4735 24.4737C12.4735 26.233 3.49549 24.8259 1.08629 23.6321V28.7599C3.71132 29.4727 6.26041 30.2031 8.83636 30.2031C16.7044 30.2031 19.6529 28.3076 19.6529 23.6321C19.6529 22.136 18.1152 20.9204 17.2736 19.9542C18.1464 18.8009 19.6529 17.3048 19.6529 15.5281ZM6.26041 13.7826C6.26041 13.3151 6.35392 12.941 6.50977 12.5982C6.72796 12.6605 6.91497 12.6917 7.13316 12.7228L7.63187 12.8475C9.87607 13.5644 13.5125 14.0943 13.5125 16.3697C13.5125 16.7749 13.4502 17.1177 13.3255 17.3983C13.0761 17.3671 12.8268 17.3048 12.5774 17.2736L12.1099 17.1801C10.3021 16.6502 6.26041 16.3073 6.26041 13.7826Z" fill="#C4DAEA"/>
</svg>
