<svg width="96" height="90" viewBox="0 0 96 90" fill="none" xmlns="http://www.w3.org/2000/svg">
<path d="M50.2717 37.7279C55.1195 38.7817 57.5434 44.1564 55.2249 48.5827C53.6441 51.4281 50.2717 53.0089 47.1101 52.2712C42.2623 51.2173 39.8385 45.8426 42.157 41.4164C43.7378 38.571 47.1101 37.0956 50.2717 37.7279Z" fill="white"/>
<path d="M48.6953 90C23.9295 90 3.69531 69.8712 3.69531 45C3.69531 20.2342 23.8241 0 48.6953 0V3.26698C25.721 3.26698 6.9623 21.9204 6.9623 44.8946C6.9623 67.8688 25.721 86.5223 48.6953 86.5223C71.6695 86.5223 90.4283 67.8688 90.4283 44.8946H93.6953C93.6953 69.7658 73.5665 90 48.6953 90Z" fill="#6CA3CB"/>
<path d="M80.0955 44.9999H78.0931C78.0931 28.7704 64.9198 15.5971 48.6903 15.5971C32.4608 15.5971 19.2875 28.7704 19.2875 44.9999H17.2852C17.2852 27.7165 31.4069 13.5947 48.6903 13.5947C65.9736 13.5947 80.0955 27.7165 80.0955 44.9999Z" fill="#6CA3CB"/>
<path d="M48.6935 67.2361V61.6506C58.4945 61.6506 66.2931 53.1143 65.2392 43.1026C64.3961 35.5148 58.2838 29.297 50.5905 28.4539C40.5788 27.2946 32.0425 35.1986 32.0425 44.9996H26.457C26.457 31.9317 37.8388 21.393 51.2228 22.9738C61.4453 24.1331 69.5601 32.3532 70.7193 42.4703C72.3001 55.8544 61.7614 67.2361 48.6935 67.2361Z" fill="#6CA3CB"/>
<path d="M82.522 78.9353L75.6719 71.8744C77.4634 70.0828 79.1496 68.1859 80.625 66.0781L88.7397 71.6636C86.9482 74.2982 84.8405 76.7222 82.522 78.9353Z" fill="white"/>
<path d="M0.636024 49.5328C-0.312454 39.7318 1.79529 30.0363 6.64306 21.5L15.1793 26.3477C11.3854 33.1979 9.69924 40.8911 10.4369 48.6897L0.636024 49.5328Z" fill="white"/>
<path d="M48.6924 80.3037C33.833 80.3037 19.922 70.8189 15.0742 55.8541L24.4536 52.7979C28.7744 66.1819 43.2123 73.559 56.5964 69.1327L59.6526 78.5121C55.9641 79.7768 52.381 80.3037 48.6924 80.3037Z" fill="white"/>
<path d="M85.6817 34.6715C83.5739 27.1891 79.2531 20.5497 73.2461 15.4912L79.5693 7.90332C87.1571 14.2265 92.5318 22.552 95.1665 31.9314L85.6817 34.6715Z" fill="#6CA3CB"/>
</svg>
