<svg width="18" height="16" viewBox="0 0 18 16" fill="none" xmlns="http://www.w3.org/2000/svg">
<path d="M1.72764 5.25193C1.95534 5.4126 2.6417 5.88981 3.78677 6.6833C4.93187 7.4768 5.80909 8.08776 6.41848 8.51624C6.48543 8.56321 6.62767 8.66531 6.84527 8.82268C7.0629 8.98015 7.24374 9.10741 7.38763 9.20447C7.53163 9.3015 7.70571 9.41036 7.91005 9.53085C8.11431 9.65125 8.30686 9.74181 8.48766 9.80175C8.6685 9.8622 8.83589 9.89214 8.98988 9.89214H9.01011C9.16411 9.89214 9.33157 9.86216 9.51241 9.80175C9.69313 9.74181 9.88586 9.65114 10.09 9.53085C10.2941 9.41022 10.4682 9.30147 10.6122 9.20447C10.7562 9.10741 10.9369 8.98015 11.1546 8.82268C11.3722 8.66517 11.5146 8.56321 11.5816 8.51624C12.1975 8.08776 13.7646 6.99955 16.2824 5.25172C16.7712 4.91035 17.1796 4.49844 17.5077 4.01627C17.836 3.53431 18 3.02872 18 2.49976C18 2.05773 17.8408 1.67935 17.5227 1.36465C17.2046 1.04988 16.8279 0.892578 16.3928 0.892578H1.60707C1.09148 0.892578 0.694701 1.06666 0.4168 1.41482C0.138933 1.76305 0 2.19832 0 2.72059C0 3.14246 0.184212 3.59961 0.552461 4.09177C0.920675 4.58397 1.31253 4.97072 1.72764 5.25193Z" fill="#474A51"/>
<path d="M16.9954 6.32685C14.7992 7.81332 13.1316 8.96855 11.9933 9.7923C11.6116 10.0734 11.302 10.2929 11.0642 10.4502C10.8264 10.6075 10.5102 10.7682 10.115 10.9322C9.71998 11.0965 9.35184 11.1783 9.01026 11.1783H8.98992C8.64841 11.1783 8.28006 11.0965 7.88503 10.9322C7.49001 10.7682 7.17355 10.6075 6.93583 10.4502C6.69817 10.2929 6.38843 10.0734 6.00678 9.7923C5.10271 9.1294 3.43868 7.9741 1.01461 6.32685C0.632816 6.07256 0.294648 5.78107 0 5.453V13.4282C0 13.8704 0.157298 14.2486 0.47207 14.5634C0.786772 14.8782 1.16519 15.0356 1.60718 15.0356H16.3929C16.8348 15.0356 17.2132 14.8782 17.5279 14.5634C17.8428 14.2485 18 13.8705 18 13.4282V5.453C17.712 5.77428 17.3773 6.06577 16.9954 6.32685Z" fill="#474A51"/>
</svg>
