<svg width="17" height="21" viewBox="0 0 17 21" fill="none" xmlns="http://www.w3.org/2000/svg">
<path d="M8.86516 11.2704C11.204 11.2704 13.1002 8.96739 13.1002 6.12645C13.1002 3.28545 12.4776 0.982422 8.86516 0.982422C5.25267 0.982422 4.63 3.28545 4.63 6.12645C4.63 8.96739 6.52619 11.2704 8.86516 11.2704Z" fill="#474A51"/>
<path d="M0.866067 19.1246C0.864625 19.0758 0.865346 18.9514 0.866067 19.1246V19.1246Z" fill="#474A51"/>
<path d="M16.864 19.2597C16.8648 18.9307 16.8663 19.2123 16.864 19.2597V19.2597Z" fill="#474A51"/>
<path d="M16.855 16.9166C16.7765 11.9676 16.1302 12.5574 11.1841 11.6648C11.1841 11.6648 10.4879 12.5519 8.86512 12.5519C7.24234 12.5519 6.54599 11.6648 6.54599 11.6648C1.65392 12.5477 0.968262 11.937 0.878108 16.7558C0.870715 17.1493 0.867289 17.17 0.865967 17.1243C0.866267 17.2099 0.866628 17.3682 0.866628 17.6443C0.866628 17.6443 2.04416 20.0181 8.86512 20.0181C15.686 20.0181 16.8636 17.6443 16.8636 17.6443C16.8636 17.4669 16.8637 17.3436 16.8639 17.2597C16.8626 17.2879 16.86 17.2332 16.855 16.9166Z" fill="#474A51"/>
</svg>
