<svg width="50" height="50" viewBox="0 0 50 50" fill="none" xmlns="http://www.w3.org/2000/svg">
<circle cx="25" cy="25" r="25" fill="#3C3E44"/>
<path d="M19.4115 20.7237C19.1715 21.2997 19.3395 21.5637 19.9155 21.7557L21.0675 22.1637C21.6435 22.3797 21.8355 22.2597 22.0995 21.6597C22.7235 20.2677 23.6355 19.4037 25.6035 19.4037C27.5955 19.4037 28.6035 20.4357 28.6035 21.8517C28.6035 23.8197 27.2355 24.4677 25.9395 25.2837C24.7635 26.0757 23.6355 27.0117 23.6355 29.2917C23.6355 29.8917 23.8275 30.0597 24.4035 30.0597H25.3635C25.9395 30.0597 26.1315 29.8917 26.1315 29.2917C26.1315 28.2837 26.8035 27.7317 27.6435 27.2037C29.2035 26.2437 31.5795 25.3317 31.5795 21.7317C31.5795 18.9957 29.4195 16.7637 25.6755 16.7637C22.1955 16.7637 20.3235 18.3717 19.4115 20.7237ZM25.0035 31.3797H24.8115C23.6595 31.3797 23.2755 31.7637 23.2755 32.9157V33.1317C23.2755 34.3077 23.6595 34.6677 24.8115 34.6677H25.0035C26.1555 34.6677 26.5395 34.3077 26.5395 33.1317V32.9157C26.5395 31.7637 26.1555 31.3797 25.0035 31.3797Z" fill="#6CA3CB"/>
</svg>
