<svg width="84" height="81" viewBox="0 0 84 81" fill="none" xmlns="http://www.w3.org/2000/svg">
<path d="M42.4638 47.3484L45.9838 46.1884C45.4638 45.7484 45.1038 45.0284 45.1038 44.3884C45.1038 40.7884 52.2638 40.3084 52.2638 34.3884C52.2638 30.7884 49.1838 28.1084 44.1438 28.1084C40.5438 28.1084 37.4638 29.5884 35.4238 32.0684L38.1038 35.0684C39.4638 33.3884 41.2238 32.2684 43.6638 32.2684C46.2638 32.2684 47.4638 33.5884 47.4638 35.1484C47.4638 38.5484 41.0238 39.0684 41.0238 43.9484C41.0238 45.2684 41.5038 46.4284 42.4638 47.3484ZM43.9038 55.6284C45.4238 55.6284 46.7038 54.3484 46.7038 52.8284C46.7038 51.3084 45.4238 50.0284 43.9038 50.0284C42.3838 50.0284 41.1038 51.3084 41.1038 52.8284C41.1038 54.3484 42.3838 55.6284 43.9038 55.6284Z" fill="#252528"/>
<path d="M5.56445 40.6885C5.56445 19.7017 22.5776 2.68848 43.5645 2.68848C64.5513 2.68848 81.5645 19.7017 81.5645 40.6885C81.5645 61.6753 64.5513 78.6885 43.5645 78.6885C22.5776 78.6885 5.56445 61.6753 5.56445 40.6885Z" stroke="#6CA3CB" stroke-width="4"/>
<path d="M9.21978 56.4037C4.37946 46.0841 4.49048 34.7137 8.58414 24.9727" stroke="#252528" stroke-width="10"/>
</svg>
