<svg width="16" height="16" viewBox="0 0 16 16" fill="none" xmlns="http://www.w3.org/2000/svg">
<path fill-rule="evenodd" clip-rule="evenodd" d="M9.90159 7.99906L15.6062 2.29447C16.1313 1.76935 16.1313 0.917974 15.6062 0.392935C15.0811 -0.13218 14.2298 -0.13218 13.7047 0.392935L7.99998 6.0976L2.29531 0.39286C1.7702 -0.132255 0.918895 -0.132255 0.39378 0.39286C-0.13126 0.917974 -0.13126 1.76935 0.39378 2.29439L6.09845 7.99899L0.39378 13.7037C-0.13126 14.2288 -0.13126 15.0801 0.39378 15.6052C0.918895 16.1303 1.7702 16.1303 2.29531 15.6052L7.99998 9.90052L13.7047 15.6052C14.2297 16.1303 15.0811 16.1303 15.6062 15.6052C16.1313 15.0801 16.1313 14.2288 15.6062 13.7037L9.90159 7.99906Z" fill="#C1C6D1"/>
</svg>
