<svg width="28" height="29" viewBox="0 0 28 29" fill="none" xmlns="http://www.w3.org/2000/svg">
<path d="M26.8998 4.29472C26.8459 3.93371 26.5676 3.63675 26.1914 3.53914L14.1339 0.409467C13.962 0.364813 13.7804 0.364813 13.6084 0.409467L1.55088 3.53914C1.17467 3.63675 0.896367 3.93359 0.84251 4.29472C0.772576 4.76407 -0.82285 15.8539 3.26931 21.3707C7.35663 26.8809 13.3863 28.293 13.6409 28.3505C13.7166 28.3676 13.7938 28.376 13.8711 28.376C13.9485 28.376 14.0256 28.3674 14.1013 28.3505C14.3561 28.293 20.3858 26.8809 24.473 21.3707C28.5651 15.854 26.9697 4.7642 26.8998 4.29472ZM21.6467 11.769L13.4222 19.4452C13.2309 19.6239 12.9799 19.8901 12.729 19.8901C12.4782 19.8901 12.2272 19.624 12.0358 19.4452L6.95075 14.6991C6.76682 14.5276 6.51915 14.2825 6.51915 14.0399C6.51915 13.7972 6.76695 13.5767 6.95075 13.4051L7.70732 12.7541C8.2067 12.3684 8.27558 12.3845 9.34682 13.3961L12.729 16.5529L19.2506 10.4659C19.4344 10.2942 20.1092 9.53257 20.3692 9.53257C20.4404 9.53257 20.5146 9.49712 20.6826 9.63567L21.6467 10.4749C22.396 11.1308 22.396 11.0826 21.6467 11.769Z" fill="#C4DAEA"/>
</svg>
