<svg width="31" height="21" viewBox="0 0 31 21" fill="none" xmlns="http://www.w3.org/2000/svg">
<path d="M15.8711 0.242188C9.05291 0.242188 3.18928 4.46946 0.871094 10.4695C3.18928 16.4695 9.05291 20.6967 15.8711 20.6967C22.6893 20.6967 28.5529 16.4695 30.8711 10.4695C28.5529 4.46946 22.6893 0.242188 15.8711 0.242188ZM15.8711 17.2876C12.0529 17.2876 9.05291 14.2876 9.05291 10.4695C9.05291 6.65128 12.0529 3.65128 15.8711 3.65128C19.6893 3.65128 22.6893 6.65128 22.6893 10.4695C22.6893 14.2876 19.6893 17.2876 15.8711 17.2876ZM15.8711 6.37855C13.5529 6.37855 11.7802 8.15128 11.7802 10.4695C11.7802 12.7876 13.5529 14.5604 15.8711 14.5604C18.1893 14.5604 19.962 12.7876 19.962 10.4695C19.962 8.15128 18.1893 6.37855 15.8711 6.37855Z" fill="#C4DAEA"/>
</svg>
