<svg width="19" height="19" viewBox="0 0 19 19" fill="none" xmlns="http://www.w3.org/2000/svg">
<path d="M18.8566 14.2104C18.8948 14.5028 18.8057 14.757 18.5899 14.9731L16.0555 17.4899C15.9412 17.617 15.7919 17.7252 15.6077 17.8141C15.4235 17.9031 15.2425 17.9603 15.0648 17.9857C15.0521 17.9857 15.0138 17.989 14.9503 17.9953C14.8869 18.0016 14.8043 18.0049 14.7027 18.0049C14.4612 18.0049 14.0706 17.9636 13.5307 17.8809C12.9908 17.7983 12.3302 17.5948 11.549 17.2707C10.7676 16.9466 9.88158 16.4603 8.89073 15.8121C7.89989 15.1638 6.84546 14.274 5.72755 13.1426C4.8383 12.2655 4.1015 11.4265 3.51713 10.6257C2.93277 9.82478 2.46274 9.08432 2.10704 8.40423C1.75131 7.72415 1.48453 7.10762 1.30668 6.55466C1.12883 6.00169 1.00815 5.525 0.944632 5.12458C0.881114 4.72415 0.855707 4.40954 0.86841 4.18072C0.881114 3.95191 0.887466 3.82479 0.887466 3.79937C0.912873 3.6214 0.970039 3.44026 1.05896 3.25594C1.14789 3.07161 1.25587 2.92225 1.3829 2.80784L3.91726 0.271832C4.09511 0.0938657 4.29837 0.00488281 4.52703 0.00488281C4.69218 0.00488281 4.83827 0.0525522 4.96531 0.147891C5.09234 0.24323 5.20032 0.360814 5.28925 0.500645L7.32817 4.3714C7.4425 4.57479 7.47426 4.79725 7.42344 5.03877C7.37263 5.2803 7.26465 5.48369 7.0995 5.64894L6.16579 6.58326C6.14038 6.60869 6.11815 6.65 6.0991 6.7072C6.08004 6.7644 6.07051 6.81207 6.07051 6.85021C6.12133 7.11716 6.23566 7.42224 6.41351 7.76546C6.56595 8.07055 6.80097 8.44237 7.11856 8.88093C7.43615 9.31949 7.88712 9.82475 8.47149 10.3968C9.04315 10.9816 9.55129 11.436 9.99591 11.7602C10.4404 12.0842 10.8121 12.3227 11.1107 12.4752C11.4092 12.6277 11.6379 12.7199 11.7966 12.7516L12.0348 12.7993C12.0602 12.7993 12.1016 12.7897 12.1587 12.7707C12.2158 12.7516 12.2571 12.7294 12.2826 12.7039L13.3687 11.598C13.5975 11.3946 13.8641 11.2929 14.169 11.2929C14.3851 11.2929 14.5565 11.331 14.6835 11.4073H14.7025L18.3802 13.5811C18.647 13.7464 18.8058 13.9561 18.8566 14.2104Z" fill="#474A51"/>
</svg>
