<svg width="19" height="19" viewBox="0 0 19 19" fill="none" xmlns="http://www.w3.org/2000/svg">
<path d="M18.0656 14.2104C18.1038 14.5028 18.0147 14.757 17.7989 14.9731L15.2645 17.4899C15.1502 17.617 15.0009 17.7252 14.8167 17.8141C14.6325 17.9031 14.4515 17.9603 14.2737 17.9857C14.261 17.9857 14.2228 17.989 14.1593 17.9953C14.0959 18.0016 14.0133 18.0049 13.9117 18.0049C13.6702 18.0049 13.2796 17.9636 12.7397 17.8809C12.1998 17.7983 11.5392 17.5948 10.758 17.2707C9.97661 16.9466 9.09056 16.4603 8.09972 15.8121C7.10887 15.1638 6.05445 14.274 4.93653 13.1426C4.04729 12.2655 3.31048 11.4265 2.72612 10.6257C2.14175 9.82478 1.67172 9.08432 1.31602 8.40423C0.960292 7.72415 0.693517 7.10762 0.515667 6.55466C0.337817 6.00169 0.217134 5.525 0.153616 5.12458C0.0900982 4.72415 0.0646911 4.40954 0.0773946 4.18072C0.0900982 3.95191 0.09645 3.82479 0.09645 3.79937C0.121857 3.6214 0.179023 3.44026 0.267948 3.25594C0.356873 3.07161 0.464853 2.92225 0.591888 2.80784L3.12625 0.271832C3.3041 0.0938657 3.50735 0.00488281 3.73602 0.00488281C3.90116 0.00488281 4.04725 0.0525522 4.17429 0.147891C4.30133 0.24323 4.40931 0.360814 4.49823 0.500645L6.53715 4.3714C6.65148 4.57479 6.68324 4.79725 6.63243 5.03877C6.58161 5.2803 6.47363 5.48369 6.30849 5.64894L5.37478 6.58326C5.34937 6.60869 5.32714 6.65 5.30808 6.7072C5.28903 6.7644 5.2795 6.81207 5.2795 6.85021C5.33031 7.11716 5.44465 7.42224 5.6225 7.76546C5.77494 8.07055 6.00995 8.44237 6.32754 8.88093C6.64513 9.31949 7.09611 9.82475 7.68047 10.3968C8.25213 10.9816 8.76027 11.436 9.2049 11.7602C9.64943 12.0842 10.0211 12.3227 10.3197 12.4752C10.6182 12.6277 10.8469 12.7199 11.0056 12.7516L11.2438 12.7993C11.2692 12.7993 11.3105 12.7897 11.3676 12.7707C11.4248 12.7516 11.4661 12.7294 11.4915 12.7039L12.5777 11.598C12.8064 11.3946 13.0731 11.2929 13.378 11.2929C13.594 11.2929 13.7654 11.331 13.8925 11.4073H13.9115L17.5891 13.5811C17.856 13.7464 18.0148 13.9561 18.0656 14.2104Z" fill="#577D9A"/>
</svg>
