<svg width="20" height="21" viewBox="0 0 20 21" fill="none" xmlns="http://www.w3.org/2000/svg">
<path d="M19.2265 18.9258L14.4665 13.9751C15.6903 12.5202 16.3609 10.6897 16.3609 8.78398C16.3609 4.3315 12.7384 0.708984 8.28593 0.708984C3.83345 0.708984 0.210938 4.3315 0.210938 8.78398C0.210938 13.2365 3.83345 16.859 8.28593 16.859C9.95745 16.859 11.5503 16.3548 12.9122 15.3977L17.7084 20.386C17.9089 20.5942 18.1785 20.709 18.4674 20.709C18.7409 20.709 19.0004 20.6047 19.1974 20.4151C19.6158 20.0124 19.6292 19.3447 19.2265 18.9258ZM8.28593 2.8155C11.577 2.8155 14.2544 5.49289 14.2544 8.78398C14.2544 12.0751 11.577 14.7524 8.28593 14.7524C4.99484 14.7524 2.31746 12.0751 2.31746 8.78398C2.31746 5.49289 4.99484 2.8155 8.28593 2.8155Z" fill="#97A0B2"/>
</svg>
