<svg width="81" height="83" viewBox="0 0 81 83" fill="none" xmlns="http://www.w3.org/2000/svg">
<path d="M32.1964 50.86C30.4564 50.86 28.9064 50.43 27.5464 49.57C26.1864 48.71 25.1164 47.47 24.3364 45.85C23.5764 44.21 23.1964 42.26 23.1964 40C23.1964 37.74 23.5764 35.8 24.3364 34.18C25.1164 32.54 26.1864 31.29 27.5464 30.43C28.9064 29.57 30.4564 29.14 32.1964 29.14C33.9364 29.14 35.4864 29.57 36.8464 30.43C38.2064 31.29 39.2664 32.54 40.0264 34.18C40.8064 35.8 41.1964 37.74 41.1964 40C41.1964 42.26 40.8064 44.21 40.0264 45.85C39.2664 47.47 38.2064 48.71 36.8464 49.57C35.4864 50.43 33.9364 50.86 32.1964 50.86ZM32.1964 46.75C33.4764 46.75 34.4764 46.2 35.1964 45.1C35.9364 44 36.3064 42.3 36.3064 40C36.3064 37.7 35.9364 36 35.1964 34.9C34.4764 33.8 33.4764 33.25 32.1964 33.25C30.9364 33.25 29.9364 33.8 29.1964 34.9C28.4764 36 28.1164 37.7 28.1164 40C28.1164 42.3 28.4764 44 29.1964 45.1C29.9364 46.2 30.9364 46.75 32.1964 46.75ZM53.0747 38.05C54.9147 38.35 56.3247 39.04 57.3047 40.12C58.2847 41.18 58.7747 42.5 58.7747 44.08C58.7747 45.3 58.4547 46.43 57.8147 47.47C57.1747 48.49 56.1947 49.31 54.8747 49.93C53.5747 50.55 51.9747 50.86 50.0747 50.86C48.5947 50.86 47.1347 50.67 45.6947 50.29C44.2747 49.89 43.0647 49.33 42.0647 48.61L43.9547 44.89C44.7547 45.49 45.6747 45.96 46.7147 46.3C47.7747 46.62 48.8547 46.78 49.9547 46.78C51.1747 46.78 52.1347 46.55 52.8347 46.09C53.5347 45.61 53.8847 44.94 53.8847 44.08C53.8847 42.36 52.5747 41.5 49.9547 41.5H47.7347V38.29L52.0547 33.4H43.1147V29.5H57.8147V32.65L53.0747 38.05Z" fill="white"/>
<path d="M2.9375 40C2.9375 19.0132 19.9507 2 40.9375 2C61.9243 2 78.9375 19.0132 78.9375 40C78.9375 60.9868 61.9243 78 40.9375 78C19.9507 78 2.9375 60.9868 2.9375 40Z" stroke="#6CA3CB" stroke-width="4"/>
<path d="M66.2689 68.4189C57.6705 75.9016 46.7048 78.9103 36.2148 77.6423" stroke="white" stroke-width="10"/>
</svg>
