<svg width="31" height="36" viewBox="0 0 31 36" fill="none" xmlns="http://www.w3.org/2000/svg">
<path d="M30.8089 17.0389C30.8089 15.0804 29.9325 13.326 28.5554 12.1362C28.2079 5.4103 22.5668 0 15.7731 0C8.9875 0 3.34639 5.41066 2.99895 12.1369C1.62223 13.3264 0.746094 15.0808 0.746094 17.0389C0.746094 20.6144 3.65447 23.5228 7.22926 23.5228C7.68313 23.5228 8.05129 23.1549 8.05129 22.7004L8.05164 11.3781C8.05164 11.1596 7.96522 10.9509 7.81101 10.7967C7.65679 10.6425 7.44741 10.5557 7.22961 10.5557C6.35699 10.5557 5.52547 10.7314 4.76492 11.0451C5.61716 5.74228 10.2613 1.64441 15.7816 1.64441C21.2941 1.64441 25.9375 5.74228 26.7898 11.0451C26.0292 10.7314 25.198 10.5557 24.3258 10.5557C23.8719 10.5557 23.5037 10.9235 23.5037 11.3781V22.7004C23.5037 23.1549 23.8719 23.5228 24.3258 23.5228C25.1994 23.5228 26.0324 23.3468 26.7936 23.032C26.0991 27.3838 22.8514 30.9871 18.5364 32.081C18.0411 31.1589 16.9935 30.5156 15.7735 30.5156C14.0792 30.5156 12.701 31.7459 12.701 33.2579C12.701 34.7698 14.0792 36.0001 15.7735 36.0001C17.2949 36.0001 18.5526 35.0052 18.7946 33.7072C24.2611 32.3895 28.2719 27.5739 28.5585 21.9395C29.9339 20.7493 30.8089 18.996 30.8089 17.0389ZM6.40688 21.8084C4.12942 21.4167 2.39051 19.427 2.39051 17.0389C2.39051 14.6508 4.12942 12.6617 6.40723 12.2701L6.40688 21.8084ZM15.7735 34.3557C14.9862 34.3557 14.3455 33.8631 14.3455 33.2579C14.3455 32.6526 14.9862 32.1601 15.7735 32.1601C16.5607 32.1601 17.2011 32.6526 17.2011 33.2579C17.2011 33.8631 16.5607 34.3557 15.7735 34.3557ZM25.1482 12.2701C27.4256 12.6617 29.1645 14.6508 29.1645 17.0389C29.1645 19.427 27.4256 21.4167 25.1482 21.8084V12.2701Z" fill="#252528"/>
</svg>
