<svg width="91" height="90" viewBox="0 0 91 90" fill="none" xmlns="http://www.w3.org/2000/svg">
<path d="M89.293 30H44.293C43.393 30 42.793 30.6 42.793 31.5V88.5C42.793 89.4 43.393 90 44.293 90H89.293C90.193 90 90.793 89.4 90.793 88.5V31.5C90.793 30.6 90.193 30 89.293 30ZM87.793 33V42H45.793C45.793 41.1 45.793 39.6 45.793 39H63.793V36H45.793C45.793 35.7 45.793 33 45.793 33H87.793ZM45.793 87C45.793 87 45.793 59.55 45.793 45H87.793V87H45.793Z" fill="#486479"/>
<path d="M57.793 48H53.293V51H57.793V48Z" fill="#486479"/>
<path d="M65.293 48H60.793V51H65.293V48Z" fill="#486479"/>
<path d="M72.793 48H68.293V51H72.793V48Z" fill="#486479"/>
<path d="M80.293 48H75.793V51H80.293V48Z" fill="#486479"/>
<path d="M56.293 55.5H50.293V58.5H56.293V55.5Z" fill="#486479"/>
<path d="M65.293 55.5H59.293V58.5H65.293V55.5Z" fill="#486479"/>
<path d="M74.293 55.5H68.293V58.5H74.293V55.5Z" fill="#486479"/>
<path d="M83.293 55.5H77.293V58.5H83.293V55.5Z" fill="#486479"/>
<path d="M56.293 61.5H50.293V64.5H56.293V61.5Z" fill="#486479"/>
<path d="M65.293 61.5H59.293V64.5H65.293V61.5Z" fill="#486479"/>
<path d="M74.293 61.5H68.293V64.5H74.293V61.5Z" fill="#486479"/>
<path d="M83.293 61.5H77.293V64.5H83.293V61.5Z" fill="#486479"/>
<path d="M56.293 67.5H50.293V70.5H56.293V67.5Z" fill="#486479"/>
<path d="M65.293 67.5H59.293V70.5H65.293V67.5Z" fill="#486479"/>
<path d="M74.293 67.5H68.293V70.5H74.293V67.5Z" fill="#486479"/>
<path d="M83.293 67.5H77.293V70.5H83.293V67.5Z" fill="#486479"/>
<path d="M56.293 73.5H50.293V76.5H56.293V73.5Z" fill="#486479"/>
<path d="M65.293 73.5H59.293V76.5H65.293V73.5Z" fill="#486479"/>
<path d="M74.293 73.5H68.293V76.5H74.293V73.5Z" fill="#486479"/>
<path d="M83.293 73.5H77.293V76.5H83.293V73.5Z" fill="#486479"/>
<path d="M56.293 79.5H50.293V82.5H56.293V79.5Z" fill="#486479"/>
<path d="M65.293 79.5H59.293V82.5H65.293V79.5Z" fill="#486479"/>
<path d="M74.293 79.5H68.293V82.5H74.293V79.5Z" fill="#486479"/>
<path d="M83.293 79.5H77.293V82.5H83.293V79.5Z" fill="#486479"/>
<path d="M3.79297 21H20.293C21.193 21 21.793 20.4 21.793 19.5V3H72.793V24H75.793V1.5C75.793 0.6 75.193 0 74.293 0H20.293C20.143 0 19.993 0 19.843 0.15H19.693C19.543 0.3 19.393 0.3 19.243 0.45L1.24297 18.45C1.09297 18.6 1.09297 18.75 0.942969 18.9V19.05C0.942969 19.2 0.792969 19.35 0.792969 19.5V36H3.79297C3.79297 36 3.79297 22.65 3.79297 21ZM18.793 18H5.89297L18.793 5.1V18Z" fill="#486479"/>
<path d="M38.293 64.5H21.793V43.5C21.793 42.6 21.193 42 20.293 42H2.29297C1.39297 42 0.792969 42.6 0.792969 43.5V88.5C0.792969 89.4 1.39297 90 2.29297 90H38.293C39.193 90 39.793 89.4 39.793 88.5V66C39.793 65.1 39.193 64.5 38.293 64.5ZM3.79297 67.5H18.793V72H3.79297V67.5ZM18.793 64.5H3.79297V60H18.793V64.5ZM18.793 57H3.79297V52.5H18.793V57ZM3.79297 75H18.793V79.5H3.79297V75ZM21.793 75H36.793V79.5H21.793V75ZM36.793 72H21.793V67.5H36.793V72ZM3.79297 45H18.793V49.5H3.79297V45ZM3.79297 82.5H18.793V87H3.79297V82.5ZM36.793 87H21.793V82.5H36.793V87Z" fill="#486479"/>
<path d="M68.293 7.5H57.793V10.5H68.293V7.5Z" fill="#486479"/>
<path d="M68.293 15H41.293V18H68.293V15Z" fill="#486479"/>
<path d="M71.293 36H66.793V39H71.293V36Z" fill="#486479"/>
</svg>
