<svg width="81" height="82" viewBox="0 0 81 82" fill="none" xmlns="http://www.w3.org/2000/svg">
<path d="M31.3663 52.861C29.6263 52.861 28.0763 52.431 26.7163 51.571C25.3563 50.711 24.2863 49.471 23.5063 47.851C22.7463 46.211 22.3663 44.261 22.3663 42.001C22.3663 39.741 22.7463 37.801 23.5063 36.181C24.2863 34.541 25.3563 33.291 26.7163 32.431C28.0763 31.571 29.6263 31.141 31.3663 31.141C33.1063 31.141 34.6563 31.571 36.0163 32.431C37.3763 33.291 38.4363 34.541 39.1963 36.181C39.9763 37.801 40.3663 39.741 40.3663 42.001C40.3663 44.261 39.9763 46.211 39.1963 47.851C38.4363 49.471 37.3763 50.711 36.0163 51.571C34.6563 52.431 33.1063 52.861 31.3663 52.861ZM31.3663 48.751C32.6463 48.751 33.6463 48.201 34.3663 47.101C35.1063 46.001 35.4763 44.301 35.4763 42.001C35.4763 39.701 35.1063 38.001 34.3663 36.901C33.6463 35.801 32.6463 35.251 31.3663 35.251C30.1063 35.251 29.1063 35.801 28.3663 36.901C27.6463 38.001 27.2863 39.701 27.2863 42.001C27.2863 44.301 27.6463 46.001 28.3663 47.101C29.1063 48.201 30.1063 48.751 31.3663 48.751ZM58.2418 48.541V52.501H42.3718V49.351L50.4718 41.701C51.3318 40.881 51.9118 40.181 52.2118 39.601C52.5118 39.001 52.6618 38.411 52.6618 37.831C52.6618 36.991 52.3718 36.351 51.7918 35.911C51.2318 35.451 50.4018 35.221 49.3018 35.221C48.3818 35.221 47.5518 35.401 46.8118 35.761C46.0718 36.101 45.4518 36.621 44.9518 37.321L41.4118 35.041C42.2318 33.821 43.3618 32.871 44.8018 32.191C46.2418 31.491 47.8918 31.141 49.7518 31.141C51.3118 31.141 52.6718 31.401 53.8318 31.921C55.0118 32.421 55.9218 33.141 56.5618 34.081C57.2218 35.001 57.5518 36.091 57.5518 37.351C57.5518 38.491 57.3118 39.561 56.8318 40.561C56.3518 41.561 55.4218 42.701 54.0418 43.981L49.2118 48.541H58.2418Z" fill="white"/>
<path d="M2.13672 42C2.13672 21.0132 19.1499 4 40.1367 4C61.1235 4 78.1367 21.0132 78.1367 42C78.1367 62.9868 61.1235 80 40.1367 80C19.1499 80 2.13672 62.9868 2.13672 42Z" stroke="#6CA3CB" stroke-width="4"/>
<path d="M48.4961 5.07617C59.5821 7.72647 68.4023 14.903 73.4654 24.1772" stroke="white" stroke-width="10"/>
</svg>
