<svg width="84" height="80" viewBox="0 0 84 80" fill="none" xmlns="http://www.w3.org/2000/svg">
<path d="M37.5391 50.86C35.7991 50.86 34.2491 50.43 32.8891 49.57C31.5291 48.71 30.4591 47.47 29.6791 45.85C28.9191 44.21 28.5391 42.26 28.5391 40C28.5391 37.74 28.9191 35.8 29.6791 34.18C30.4591 32.54 31.5291 31.29 32.8891 30.43C34.2491 29.57 35.7991 29.14 37.5391 29.14C39.2791 29.14 40.8291 29.57 42.1891 30.43C43.5491 31.29 44.6091 32.54 45.3691 34.18C46.1491 35.8 46.5391 37.74 46.5391 40C46.5391 42.26 46.1491 44.21 45.3691 45.85C44.6091 47.47 43.5491 48.71 42.1891 49.57C40.8291 50.43 39.2791 50.86 37.5391 50.86ZM37.5391 46.75C38.8191 46.75 39.8191 46.2 40.5391 45.1C41.2791 44 41.6491 42.3 41.6491 40C41.6491 37.7 41.2791 36 40.5391 34.9C39.8191 33.8 38.8191 33.25 37.5391 33.25C36.2791 33.25 35.2791 33.8 34.5391 34.9C33.8191 36 33.4591 37.7 33.4591 40C33.4591 42.3 33.8191 44 34.5391 45.1C35.2791 46.2 36.2791 46.75 37.5391 46.75ZM56.8247 29.5V50.5H51.9647V33.4H47.7647V29.5H56.8247Z" fill="white"/>
<path d="M5.33594 40C5.33594 19.0132 22.3491 2 43.3359 2C64.3228 2 81.3359 19.0132 81.3359 40C81.3359 60.9868 64.3228 78 43.3359 78C22.3491 78 5.33594 60.9868 5.33594 40Z" stroke="#6CA3CB" stroke-width="4"/>
<path d="M8.99126 55.7153C4.15095 45.3957 4.26197 34.0253 8.35563 24.2842" stroke="white" stroke-width="10"/>
</svg>
